<?xml version="1.0" encoding="UTF-8" standalone="no"?>
<!DOCTYPE svg PUBLIC "-//W3C//DTD SVG 1.1//EN" "http://www.w3.org/Graphics/SVG/1.1/DTD/svg11.dtd">
<svg width="100%" height="100%" viewBox="0 0 1000 1000" version="1.1" xmlns="http://www.w3.org/2000/svg" xmlns:xlink="http://www.w3.org/1999/xlink" xml:space="preserve" xmlns:serif="http://www.serif.com/" style="fill-rule:evenodd;clip-rule:evenodd;stroke-linejoin:round;stroke-miterlimit:2;">
    <g transform="matrix(3.99661e-16,-6.52696,6.52696,3.99661e-16,501.328,500.549)">
        <g transform="matrix(1,0,0,1,-53,-68)">
            <clipPath id="_clip1">
                <rect x="0" y="0" width="106" height="136"/>
            </clipPath>
            <g clip-path="url(#_clip1)">
                <path d="M48.802,19.022C48.802,17.992 49.212,17.004 49.942,16.276C50.672,15.547 51.661,15.138 52.694,15.138L75.732,15.138C79.707,15.138 83.643,15.919 87.315,17.438C90.987,18.956 94.324,21.181 97.135,23.986C99.946,26.791 102.175,30.121 103.696,33.786C105.217,37.451 106,41.379 106,45.346L106,75.555C106,79.522 105.217,83.45 103.696,87.115C102.175,90.78 99.946,94.11 97.135,96.915C94.324,99.72 90.987,101.945 87.315,103.463C83.643,104.981 79.707,105.763 75.732,105.763L45.465,105.763L45.465,132.116C45.465,133.146 45.055,134.134 44.325,134.862C43.595,135.591 42.605,136 41.573,136L19.03,136C17.998,136 17.008,135.591 16.278,134.862C15.549,134.134 15.139,133.146 15.139,132.116L15.139,52.551C15.139,51.521 15.549,50.533 16.278,49.805C17.008,49.076 17.998,48.667 19.03,48.667L41.573,48.667C42.605,48.667 43.595,49.076 44.325,49.805C45.055,50.533 45.465,51.521 45.465,52.551L45.465,75.555L75.732,75.555L75.732,45.346L52.694,45.346C51.661,45.346 50.672,44.937 49.942,44.209C49.212,43.48 48.802,42.492 48.802,41.462L48.802,19.022ZM26.424,30.266C27.457,30.266 28.447,29.857 29.176,29.129C29.906,28.4 30.316,27.413 30.316,26.382L30.316,3.884C30.316,2.854 29.906,1.866 29.176,1.138C28.447,0.409 27.457,0 26.424,0L3.892,0C2.86,0 1.87,0.409 1.14,1.138C0.41,1.866 0,2.854 0,3.884L0,26.382C0,27.413 0.41,28.4 1.14,29.129C1.87,29.857 2.86,30.266 3.892,30.266L26.424,30.266Z" style="fill:url(#_Linear2);fill-rule:nonzero;"/>
            </g>
        </g>
    </g>
    <defs>
        <linearGradient id="_Linear2" x1="0" y1="0" x2="1" y2="0" gradientUnits="userSpaceOnUse" gradientTransform="matrix(-80.505,111.933,-111.933,-80.505,77.9409,9.46737)"><stop offset="0" style="stop-color:rgb(56,199,247);stop-opacity:1"/><stop offset="0.21" style="stop-color:rgb(52,168,235);stop-opacity:1"/><stop offset="0.66" style="stop-color:rgb(43,89,205);stop-opacity:1"/><stop offset="0.99" style="stop-color:rgb(36,28,181);stop-opacity:1"/><stop offset="1" style="stop-color:rgb(36,28,181);stop-opacity:1"/></linearGradient>
    </defs>
</svg>
